<svg version="1.1" id="Layer_1" xmlns="http://www.w3.org/2000/svg" xmlns:xlink="http://www.w3.org/1999/xlink" x="0px" y="0px"
	 width="100%" viewBox="0 0 325 260" enable-background="new 0 0 325 260" xml:space="preserve">
<path fill="#FFFDF9" opacity="1.000000" stroke="none" 
	d="
M227.000000,261.000000 
	C151.365448,261.000000 76.230904,261.000000 1.048179,261.000000 
	C1.048179,174.402512 1.048179,87.804985 1.048179,1.103729 
	C109.217796,1.103729 217.435730,1.103729 325.826843,1.103729 
	C325.826843,87.666382 325.826843,174.333160 325.826843,261.000000 
	C293.138428,261.000000 260.319214,261.000000 227.000000,261.000000 
M231.085342,189.788422 
	C230.731613,189.430756 230.230042,189.136276 230.046173,188.706024 
	C227.003342,181.585403 219.402451,180.361252 213.289902,186.107391 
	C212.457932,183.152054 210.410019,182.386734 207.566544,182.744308 
	C206.025436,182.938126 204.332901,182.451843 202.911972,182.906982 
	C201.824585,183.255280 200.333069,184.551132 200.269897,185.507950 
	C199.985657,189.813477 200.013260,194.155884 200.254059,198.466812 
	C200.305771,199.392670 201.709229,200.243042 202.490005,201.128189 
	C203.264999,200.207886 204.560410,199.365158 204.711456,198.351852 
	C205.076004,195.906265 204.808151,193.374329 204.976990,190.889572 
	C205.169113,188.062134 206.174591,186.044830 209.666626,186.757660 
	C210.902588,187.009964 212.228638,186.820816 213.041931,187.511230 
	C211.253891,194.062408 212.881378,198.786484 217.556976,200.616959 
	C222.784561,202.663528 226.786819,200.724792 230.245743,194.565475 
	C230.380249,194.325943 231.241150,194.494354 231.730530,195.176132 
	C234.131393,200.425003 237.958878,202.324493 243.235077,200.885590 
	C247.433594,199.740616 249.519897,196.187210 249.177597,190.764099 
	C248.873932,185.953201 246.202682,183.194885 241.436508,182.770737 
	C235.937500,182.281372 233.147690,184.194672 231.085342,189.788422 
M110.718643,129.759445 
	C119.788551,156.830933 144.916107,172.688934 173.182877,169.180664 
	C205.595612,165.157791 227.587891,134.778137 222.056076,101.668304 
	C216.854095,70.532822 185.338501,49.335217 154.232880,55.571579 
	C122.320892,61.969608 100.306892,94.803337 110.718643,129.759445 
M92.783806,132.685501 
	C92.626450,140.834946 92.439201,148.983948 92.324455,157.134003 
	C92.267838,161.155640 94.613182,163.283524 97.777435,161.604858 
	C99.087708,160.909744 99.969124,158.145218 99.922691,156.350876 
	C99.505493,140.229965 98.719742,124.118187 98.359459,107.996635 
	C98.298416,105.264992 98.898331,101.509003 100.690628,99.965897 
	C103.934410,97.173141 104.796616,94.101753 104.640472,90.332710 
	C104.337547,83.021126 103.980560,75.710701 103.526108,68.407249 
	C103.416405,66.644089 102.839012,64.910027 102.476692,63.162586 
	C102.036316,63.237915 101.595940,63.313240 101.155563,63.388565 
	C101.155563,71.959641 101.155563,80.530708 101.155563,89.101784 
	C100.598907,89.134155 100.042252,89.166527 99.485588,89.198891 
	C99.332253,84.933586 99.149376,80.669075 99.033760,76.402748 
	C98.914978,72.019478 98.861893,67.634430 98.780052,63.250156 
	C97.953468,63.283661 97.126892,63.317169 96.300308,63.350677 
	C96.300308,71.927879 96.300308,80.505089 96.300308,89.082291 
	C95.591995,89.081528 94.883682,89.080757 94.175369,89.079987 
	C94.175369,80.495621 94.175369,71.911255 94.175369,63.326885 
	C93.387062,63.322739 92.598763,63.318596 91.810455,63.314449 
	C91.810455,71.914459 91.810455,80.514465 91.810455,89.114479 
	C91.163986,89.076118 90.517525,89.037750 89.871056,88.999390 
	C89.871056,80.403793 89.871056,71.808189 89.871056,63.212593 
	C88.604889,63.808922 88.095070,64.497681 88.058640,65.210640 
	C87.600266,74.178841 86.941925,83.151741 86.982239,92.120529 
	C86.992958,94.508400 89.228279,96.872177 90.387680,99.273354 
	C91.342644,101.251122 92.957123,103.252472 92.999008,105.269951 
	C93.182045,114.085434 92.898354,122.910614 92.783806,132.685501 
M240.174194,128.500061 
	C240.173065,108.521843 240.239487,88.543030 240.061707,68.566383 
	C240.044754,66.661377 238.501953,64.769936 237.667511,62.872204 
	C236.285324,64.512611 234.107620,65.964134 233.665146,67.827667 
	C232.133499,74.278206 230.892883,80.835495 230.122101,87.420128 
	C228.991913,97.075012 226.681290,106.993752 233.861649,115.651665 
	C234.455521,116.367729 234.149033,117.913086 234.100708,119.066429 
	C233.585846,131.358658 232.986313,143.647659 232.544510,155.942368 
	C232.456604,158.388565 231.478012,161.545410 235.788376,161.880707 
	C240.071655,162.213928 240.208954,159.560089 240.191574,156.470505 
	C240.140976,147.480606 240.173737,138.490250 240.174194,128.500061 
M193.880722,186.179382 
	C193.215240,185.035080 192.549774,183.890762 191.884293,182.746460 
	C189.090698,185.451660 186.288284,182.680054 183.486725,182.719147 
	C179.821518,182.770279 177.429031,184.370743 176.483109,187.865768 
	C175.387650,191.913239 175.243011,196.423843 178.820938,198.841415 
	C181.343719,200.546036 185.263916,200.182541 189.144440,200.841629 
	C188.860016,201.381851 188.279495,204.040649 187.133087,204.312439 
	C185.210876,204.768127 182.928864,203.699219 180.796799,203.279190 
	C179.548660,203.033295 178.297699,202.801651 177.048004,202.563599 
	C177.184647,203.632996 177.123550,205.555557 177.488480,205.640137 
	C181.234406,206.508408 185.183655,207.945877 188.791641,207.387146 
	C190.762939,207.081863 193.213608,203.435120 193.639191,200.981506 
	C194.423721,196.458527 193.874725,191.704239 193.880722,186.179382 
M255.600769,190.830902 
	C256.912140,189.242844 258.223541,187.654770 259.534912,186.066711 
	C260.344330,187.860275 261.471741,189.585754 261.874390,191.466415 
	C262.283447,193.377090 261.709869,195.491943 262.077942,197.419754 
	C262.329163,198.735229 263.458405,199.883041 264.195068,201.105835 
	C264.981018,199.852356 266.218597,198.676865 266.451538,197.327896 
	C266.842682,195.062698 266.181610,192.579254 266.752502,190.393799 
	C267.171539,188.789749 268.852875,187.515457 269.971619,186.094193 
	C270.904968,187.455109 272.389404,188.718994 272.649841,190.198364 
	C273.104980,192.783447 272.636169,195.518936 272.911499,198.154099 
	C273.018494,199.178207 274.093384,200.101181 274.727356,201.070221 
	C275.541168,200.082138 276.939972,199.158310 277.056946,198.093689 
	C277.382050,195.133911 277.247498,192.113495 277.161499,189.120880 
	C277.001648,183.559128 273.822723,181.444092 268.507935,183.276291 
	C267.469452,183.634293 266.396606,184.367523 265.396698,184.279449 
	C261.245544,183.913803 257.123810,183.198288 252.970581,182.890076 
	C252.370377,182.845535 251.118332,184.297119 251.086121,185.093506 
	C250.904770,189.578659 250.877014,194.081985 251.116760,198.561996 
	C251.163834,199.441620 252.614929,200.246124 253.418503,201.085281 
	C254.108856,200.294922 255.281494,199.568359 255.396133,198.701828 
	C255.699356,196.409576 255.544479,194.056732 255.600769,190.830902 
M80.629959,190.876450 
	C79.771713,182.651047 77.798576,181.427917 68.830124,183.783005 
	C68.762405,182.255661 68.995232,180.682434 68.546242,179.336655 
	C68.113800,178.040482 66.976723,176.979401 66.149208,175.815033 
	C65.466919,176.940353 64.229156,178.048904 64.194595,179.193787 
	C64.003708,185.516296 63.996639,191.851562 64.220230,198.172058 
	C64.255898,199.180389 65.777710,200.136154 66.612473,201.116226 
	C67.280685,200.134537 68.396912,199.209839 68.530426,198.160126 
	C68.885635,195.367554 68.376091,192.402283 69.092194,189.743149 
	C69.486649,188.278412 71.658058,187.292206 73.028343,186.090271 
	C73.999817,187.427338 75.570526,188.664398 75.813919,190.122955 
	C76.273872,192.879379 75.824036,195.776062 76.071289,198.586380 
	C76.148819,199.467514 77.249031,200.258682 77.881142,201.091019 
	C78.749619,200.309341 80.209457,199.632401 80.370102,198.725342 
	C80.771423,196.459534 80.582825,194.089233 80.629959,190.876450 
M116.251717,183.985199 
	C112.685181,182.165985 109.022240,181.821259 106.278648,185.062134 
	C103.181206,188.720963 103.078728,193.378754 105.558395,197.151352 
	C106.888695,199.175278 110.183144,200.260406 112.807434,200.972290 
	C114.980354,201.561737 117.446472,197.653107 119.820625,201.055084 
	C120.550003,200.177917 121.887634,199.317062 121.911690,198.420944 
	C122.090042,191.776871 122.090157,185.123505 121.907135,178.479645 
	C121.882790,177.595947 120.512184,176.749329 119.765030,175.885544 
	C119.172081,176.881195 118.355515,177.810608 118.036537,178.887421 
	C117.505592,180.679718 117.293701,182.566513 116.251717,183.985199 
M98.985390,191.951492 
	C99.817787,186.268051 97.331078,182.997513 91.834099,182.546036 
	C86.198654,182.083191 82.387123,185.535645 82.126671,191.338943 
	C81.849945,197.504898 85.229256,201.172104 91.240547,201.229233 
	C96.395958,201.278229 98.679390,199.430664 98.489594,194.870621 
	C94.476608,196.333191 89.676056,202.007309 86.650124,193.395462 
	C90.926903,193.075592 94.668793,192.795746 98.985390,191.951492 
M169.976120,193.718399 
	C169.976807,195.047195 169.722305,196.443451 170.050674,197.685608 
	C170.372299,198.902237 171.287537,199.961929 171.942230,201.090500 
	C172.702011,199.909210 173.983078,198.783936 174.117279,197.535400 
	C174.434906,194.580612 174.325272,191.561218 174.172897,188.578964 
	C173.950027,184.217468 171.642563,182.353226 167.367767,182.691925 
	C164.948730,182.883591 162.539276,185.836807 160.086060,182.770599 
	C159.384094,183.671722 158.125961,184.543182 158.076050,185.479095 
	C157.855164,189.619766 157.823883,193.788986 158.087601,197.924698 
	C158.157959,199.028152 159.515823,200.049515 160.282578,201.108582 
	C161.042892,200.012054 162.293930,198.986588 162.465103,197.804733 
	C162.866531,195.032959 162.359131,192.091125 163.010452,189.410248 
	C163.335312,188.073074 165.267120,186.643387 166.729614,186.273300 
	C167.439774,186.093597 168.993790,188.117935 169.691956,189.402084 
	C170.193283,190.324203 169.909424,191.673218 169.976120,193.718399 
M148.175919,195.378677 
	C148.156265,193.054703 148.272324,190.719910 148.087753,188.409103 
	C147.739960,184.054733 145.462006,182.337723 141.066727,182.792740 
	C138.726852,183.034988 136.365967,185.576614 134.026794,182.785934 
	C133.348434,183.693283 132.136581,184.571136 132.084503,185.513107 
	C131.864838,189.486267 131.813446,193.491089 132.094391,197.456436 
	C132.183319,198.711395 133.497696,199.879532 134.251251,201.087402 
	C134.893204,199.793945 135.878281,198.556824 136.101852,197.194717 
	C136.501480,194.759949 135.978943,192.095367 136.736221,189.825165 
	C137.246140,188.296463 139.293121,187.280472 140.652481,186.035095 
	C141.706039,187.473022 143.224487,188.776230 143.690582,190.384415 
	C144.223663,192.223694 143.538834,194.388809 143.910980,196.310120 
	C144.231750,197.966202 145.293442,199.478760 146.027542,201.054779 
	C146.743881,199.476395 147.460236,197.898010 148.175919,195.378677 
M57.899357,179.788635 
	C57.073082,178.608627 56.246807,177.428619 55.420536,176.248611 
	C54.737255,177.406540 53.965530,178.522583 53.392433,179.732697 
	C52.627071,181.348770 52.015903,183.037857 51.576385,184.113449 
	C52.220970,186.708282 52.970715,188.978195 53.308567,191.307816 
	C53.614811,193.419510 53.043308,195.733917 53.673515,197.697464 
	C54.116196,199.076706 55.818851,200.785477 57.150734,200.971207 
	C59.087681,201.241302 61.197399,200.272430 63.233440,199.831879 
	C63.297077,199.318069 63.360714,198.804260 63.424351,198.290451 
	C53.885117,197.562057 59.486511,190.749298 57.687115,186.837921 
	C59.512028,186.164032 60.889545,185.655350 62.496895,185.061783 
	C60.694317,183.318985 59.299568,181.970505 57.899357,179.788635 
M155.169449,190.547180 
	C155.160736,188.716949 155.365280,186.848770 155.049316,185.073212 
	C154.901245,184.241226 153.748978,183.587967 153.051819,182.853699 
	C152.371597,183.600647 151.132645,184.325958 151.102737,185.098099 
	C150.922562,189.749756 150.945114,194.414703 151.105957,199.068085 
	C151.129395,199.746368 152.469360,201.034439 152.829727,200.915741 
	C153.706100,200.627106 154.918350,199.742844 155.008881,198.981247 
	C155.301590,196.518265 155.149887,194.002472 155.169449,190.547180 
M124.830307,196.296707 
	C125.548508,197.880157 126.266708,199.463593 126.984909,201.047043 
	C127.713074,199.458633 128.931229,197.911560 129.069473,196.273361 
	C129.376602,192.634094 129.258408,188.942337 129.042740,185.287964 
	C128.992813,184.442108 127.856346,183.660370 127.219864,182.849121 
	C126.434700,183.679886 125.047409,184.459579 124.971825,185.350525 
	C124.691048,188.660690 124.841866,192.007462 124.830307,196.296707 
z"/>
<path fill="#714129" opacity="1.000000" stroke="none" 
	d="
M110.573196,129.384811 
	C100.306892,94.803337 122.320892,61.969608 154.232880,55.571579 
	C185.338501,49.335217 216.854095,70.532822 222.056076,101.668304 
	C227.587891,134.778137 205.595612,165.157791 173.182877,169.180664 
	C144.916107,172.688934 119.788551,156.830933 110.573196,129.384811 
M199.131668,69.331734 
	C187.867661,60.609455 175.171967,56.794472 160.927414,57.863350 
	C132.027191,60.031963 109.668030,85.544472 111.064407,114.905357 
	C112.443977,143.912628 137.712189,167.568466 166.457245,166.763626 
	C189.306213,166.123840 209.495804,151.444168 216.904282,130.083969 
	C224.469681,108.271317 217.717880,84.653473 199.131668,69.331734 
z"/>
<path fill="#6E3C24" opacity="1.000000" stroke="none" 
	d="
M92.783936,132.208893 
	C92.898354,122.910614 93.182045,114.085434 92.999008,105.269951 
	C92.957123,103.252472 91.342644,101.251122 90.387680,99.273354 
	C89.228279,96.872177 86.992958,94.508400 86.982239,92.120529 
	C86.941925,83.151741 87.600266,74.178841 88.058640,65.210640 
	C88.095070,64.497681 88.604889,63.808922 89.871056,63.212593 
	C89.871056,71.808189 89.871056,80.403793 89.871056,88.999390 
	C90.517525,89.037750 91.163986,89.076118 91.810455,89.114479 
	C91.810455,80.514465 91.810455,71.914459 91.810455,63.314449 
	C92.598763,63.318596 93.387062,63.322739 94.175369,63.326885 
	C94.175369,71.911255 94.175369,80.495621 94.175369,89.079987 
	C94.883682,89.080757 95.591995,89.081528 96.300308,89.082291 
	C96.300308,80.505089 96.300308,71.927879 96.300308,63.350677 
	C97.126892,63.317169 97.953468,63.283661 98.780052,63.250156 
	C98.861893,67.634430 98.914978,72.019478 99.033760,76.402748 
	C99.149376,80.669075 99.332253,84.933586 99.485588,89.198891 
	C100.042252,89.166527 100.598907,89.134155 101.155563,89.101784 
	C101.155563,80.530708 101.155563,71.959641 101.155563,63.388565 
	C101.595940,63.313240 102.036316,63.237915 102.476692,63.162586 
	C102.839012,64.910027 103.416405,66.644089 103.526108,68.407249 
	C103.980560,75.710701 104.337547,83.021126 104.640472,90.332710 
	C104.796616,94.101753 103.934410,97.173141 100.690628,99.965897 
	C98.898331,101.509003 98.298416,105.264992 98.359459,107.996635 
	C98.719742,124.118187 99.505493,140.229965 99.922691,156.350876 
	C99.969124,158.145218 99.087708,160.909744 97.777435,161.604858 
	C94.613182,163.283524 92.267838,161.155640 92.324455,157.134003 
	C92.439201,148.983948 92.626450,140.834946 92.783936,132.208893 
z"/>
<path fill="#67341B" opacity="1.000000" stroke="none" 
	d="
M240.173981,129.000061 
	C240.173737,138.490250 240.140976,147.480606 240.191574,156.470505 
	C240.208954,159.560089 240.071655,162.213928 235.788376,161.880707 
	C231.478012,161.545410 232.456604,158.388565 232.544510,155.942368 
	C232.986313,143.647659 233.585846,131.358658 234.100708,119.066429 
	C234.149033,117.913086 234.455521,116.367729 233.861649,115.651665 
	C226.681290,106.993752 228.991913,97.075012 230.122101,87.420128 
	C230.892883,80.835495 232.133499,74.278206 233.665146,67.827667 
	C234.107620,65.964134 236.285324,64.512611 237.667511,62.872200 
	C238.501953,64.769936 240.044754,66.661377 240.061707,68.566383 
	C240.239487,88.543030 240.173065,108.521843 240.173981,129.000061 
z"/>
<path fill="#F34E1E" opacity="1.000000" stroke="none" 
	d="
M193.881058,186.612854 
	C193.874725,191.704239 194.423721,196.458527 193.639191,200.981506 
	C193.213608,203.435120 190.762939,207.081863 188.791641,207.387146 
	C185.183655,207.945877 181.234406,206.508408 177.488480,205.640137 
	C177.123550,205.555557 177.184647,203.632996 177.048004,202.563599 
	C178.297699,202.801651 179.548660,203.033295 180.796799,203.279190 
	C182.928864,203.699219 185.210876,204.768127 187.133087,204.312439 
	C188.279495,204.040649 188.860016,201.381851 189.144440,200.841629 
	C185.263916,200.182541 181.343719,200.546036 178.820938,198.841415 
	C175.243011,196.423843 175.387650,191.913239 176.483109,187.865768 
	C177.429031,184.370743 179.821518,182.770279 183.486725,182.719147 
	C186.288284,182.680054 189.090698,185.451660 191.884293,182.746460 
	C192.549774,183.890762 193.215240,185.035080 193.881058,186.612854 
M180.894165,194.150253 
	C181.859253,197.155090 184.381516,198.506866 186.583374,196.720154 
	C188.209152,195.400909 189.040756,192.203690 188.892990,189.929825 
	C188.801956,188.529129 186.204651,187.291321 184.732620,185.980377 
	C183.359848,187.758331 181.920486,189.491180 180.662888,191.347168 
	C180.362869,191.789932 180.669571,192.643799 180.894165,194.150253 
z"/>
<path fill="#F24614" opacity="1.000000" stroke="none" 
	d="
M255.586349,191.279449 
	C255.544479,194.056732 255.699356,196.409576 255.396133,198.701828 
	C255.281494,199.568359 254.108856,200.294922 253.418488,201.085266 
	C252.614929,200.246124 251.163834,199.441620 251.116760,198.561996 
	C250.877014,194.081985 250.904770,189.578659 251.086121,185.093506 
	C251.118332,184.297119 252.370377,182.845535 252.970581,182.890076 
	C257.123810,183.198288 261.245544,183.913803 265.396698,184.279449 
	C266.396606,184.367523 267.469452,183.634293 268.507935,183.276291 
	C273.822723,181.444092 277.001648,183.559128 277.161499,189.120880 
	C277.247498,192.113495 277.382050,195.133911 277.056946,198.093689 
	C276.939972,199.158310 275.541168,200.082138 274.727356,201.070221 
	C274.093384,200.101181 273.018494,199.178207 272.911499,198.154099 
	C272.636169,195.518936 273.104980,192.783447 272.649841,190.198364 
	C272.389404,188.718994 270.904968,187.455109 269.971619,186.094193 
	C268.852875,187.515457 267.171539,188.789749 266.752502,190.393799 
	C266.181610,192.579254 266.842682,195.062698 266.451538,197.327896 
	C266.218597,198.676865 264.981018,199.852356 264.195068,201.105835 
	C263.458405,199.883041 262.329163,198.735229 262.077942,197.419754 
	C261.709869,195.491943 262.283447,193.377090 261.874390,191.466415 
	C261.471741,189.585754 260.344330,187.860275 259.534912,186.066711 
	C258.223541,187.654770 256.912140,189.242844 255.586349,191.279449 
z"/>
<path fill="#F35324" opacity="1.000000" stroke="none" 
	d="
M80.630463,191.318665 
	C80.582825,194.089233 80.771423,196.459534 80.370102,198.725342 
	C80.209457,199.632401 78.749619,200.309341 77.881134,201.091019 
	C77.249031,200.258682 76.148819,199.467514 76.071289,198.586380 
	C75.824036,195.776062 76.273872,192.879379 75.813919,190.122955 
	C75.570526,188.664398 73.999817,187.427338 73.028343,186.090271 
	C71.658058,187.292206 69.486649,188.278412 69.092194,189.743149 
	C68.376091,192.402283 68.885635,195.367554 68.530426,198.160126 
	C68.396912,199.209839 67.280685,200.134537 66.612473,201.116226 
	C65.777710,200.136154 64.255898,199.180389 64.220230,198.172058 
	C63.996639,191.851562 64.003708,185.516296 64.194595,179.193787 
	C64.229156,178.048904 65.466919,176.940353 66.149216,175.815033 
	C66.976723,176.979401 68.113800,178.040482 68.546242,179.336655 
	C68.995232,180.682434 68.762405,182.255661 68.830124,183.783005 
	C77.798576,181.427917 79.771713,182.651047 80.630463,191.318665 
z"/>
<path fill="#F24614" opacity="1.000000" stroke="none" 
	d="
M116.599579,184.199356 
	C117.293701,182.566513 117.505592,180.679718 118.036537,178.887421 
	C118.355515,177.810608 119.172081,176.881195 119.765030,175.885544 
	C120.512184,176.749329 121.882790,177.595947 121.907135,178.479645 
	C122.090157,185.123505 122.090042,191.776871 121.911690,198.420944 
	C121.887634,199.317062 120.550003,200.177917 119.820618,201.055084 
	C117.446472,197.653107 114.980354,201.561737 112.807434,200.972290 
	C110.183144,200.260406 106.888695,199.175278 105.558395,197.151352 
	C103.078728,193.378754 103.181206,188.720963 106.278648,185.062134 
	C109.022240,181.821259 112.685181,182.165985 116.599579,184.199356 
M116.913506,195.288742 
	C117.023712,193.374374 117.570992,191.354584 117.140739,189.570557 
	C116.509789,186.954254 114.498474,184.852905 111.724365,186.367157 
	C110.190247,187.204529 108.752243,189.707672 108.748772,191.462875 
	C108.744881,193.427246 110.010338,195.861084 111.521912,197.164886 
	C112.279976,197.818741 114.810860,196.417191 116.913506,195.288742 
z"/>
<path fill="#F34B1A" opacity="1.000000" stroke="none" 
	d="
M231.763580,194.472687 
	C231.241150,194.494354 230.380249,194.325943 230.245743,194.565475 
	C226.786819,200.724792 222.784561,202.663528 217.556976,200.616959 
	C212.881378,198.786484 211.253891,194.062408 213.398621,187.089417 
	C213.891205,186.518753 213.983734,186.346573 214.032944,186.151093 
	C219.402451,180.361252 227.003342,181.585403 230.046173,188.706024 
	C230.230042,189.136276 230.731613,189.430756 231.486542,190.113708 
	C231.846344,191.783554 231.804962,193.128113 231.763580,194.472687 
M225.834381,189.970612 
	C224.844452,187.230637 223.245987,185.047073 220.008560,186.170074 
	C216.407791,187.419128 216.259064,190.842102 217.120071,193.634155 
	C217.653442,195.363754 220.008194,196.531693 221.545334,197.951767 
	C223.024094,195.886185 224.517456,193.830688 225.959869,191.740036 
	C226.110229,191.522110 225.958801,191.095993 225.834381,189.970612 
z"/>
<path fill="#F34D1D" opacity="1.000000" stroke="none" 
	d="
M98.698044,192.233688 
	C94.668793,192.795746 90.926903,193.075592 86.650124,193.395462 
	C89.676056,202.007309 94.476608,196.333191 98.489594,194.870621 
	C98.679390,199.430664 96.395958,201.278229 91.240547,201.229233 
	C85.229256,201.172104 81.849945,197.504898 82.126671,191.338943 
	C82.387123,185.535645 86.198654,182.083191 91.834099,182.546036 
	C97.331078,182.997513 99.817787,186.268051 98.698044,192.233688 
M88.109695,186.908951 
	C87.695763,187.975098 87.281837,189.041260 86.855141,190.140305 
	C90.032188,190.140305 92.515671,190.140305 95.281158,190.140305 
	C94.071053,186.182648 92.307610,184.407410 88.109695,186.908951 
z"/>
<path fill="#F34918" opacity="1.000000" stroke="none" 
	d="
M169.975983,193.275101 
	C169.909424,191.673218 170.193283,190.324203 169.691956,189.402084 
	C168.993790,188.117935 167.439774,186.093597 166.729614,186.273300 
	C165.267120,186.643387 163.335312,188.073074 163.010452,189.410248 
	C162.359131,192.091125 162.866531,195.032959 162.465103,197.804733 
	C162.293930,198.986588 161.042892,200.012054 160.282578,201.108582 
	C159.515823,200.049515 158.157959,199.028152 158.087601,197.924698 
	C157.823883,193.788986 157.855164,189.619766 158.076050,185.479095 
	C158.125961,184.543182 159.384094,183.671722 160.086060,182.770599 
	C162.539276,185.836807 164.948730,182.883591 167.367767,182.691925 
	C171.642563,182.353226 173.950027,184.217468 174.172897,188.578964 
	C174.325272,191.561218 174.434906,194.580612 174.117279,197.535400 
	C173.983078,198.783936 172.702011,199.909210 171.942230,201.090500 
	C171.287537,199.961929 170.372299,198.902237 170.050674,197.685608 
	C169.722305,196.443451 169.976807,195.047195 169.975983,193.275101 
z"/>
<path fill="#F24614" opacity="1.000000" stroke="none" 
	d="
M231.747055,194.824402 
	C231.804962,193.128113 231.846344,191.783554 231.802277,189.937836 
	C233.147690,184.194672 235.937500,182.281372 241.436508,182.770737 
	C246.202682,183.194885 248.873932,185.953201 249.177597,190.764099 
	C249.519897,196.187210 247.433594,199.740616 243.235077,200.885590 
	C237.958878,202.324493 234.131393,200.425003 231.747055,194.824402 
M243.807068,187.793549 
	C241.864151,185.541046 239.034393,184.732742 237.553192,187.243805 
	C236.246384,189.459213 236.250504,192.795670 236.653809,195.490753 
	C236.802765,196.486206 240.819092,198.080597 241.222260,197.654007 
	C242.863037,195.917953 243.935898,193.566788 244.886566,191.303146 
	C245.183502,190.596069 244.437134,189.450836 243.807068,187.793549 
z"/>
<path fill="#F24412" opacity="1.000000" stroke="none" 
	d="
M148.176239,195.849152 
	C147.460236,197.898010 146.743881,199.476395 146.027557,201.054779 
	C145.293442,199.478760 144.231750,197.966202 143.910980,196.310120 
	C143.538834,194.388809 144.223663,192.223694 143.690582,190.384415 
	C143.224487,188.776230 141.706039,187.473022 140.652481,186.035095 
	C139.293121,187.280472 137.246140,188.296463 136.736221,189.825165 
	C135.978943,192.095367 136.501480,194.759949 136.101852,197.194717 
	C135.878281,198.556824 134.893204,199.793945 134.251251,201.087402 
	C133.497696,199.879532 132.183319,198.711395 132.094391,197.456436 
	C131.813446,193.491089 131.864838,189.486267 132.084503,185.513107 
	C132.136581,184.571136 133.348434,183.693283 134.026794,182.785934 
	C136.365967,185.576614 138.726852,183.034988 141.066727,182.792740 
	C145.462006,182.337723 147.739960,184.054733 148.087753,188.409103 
	C148.272324,190.719910 148.156265,193.054703 148.176239,195.849152 
z"/>
<path fill="#F35324" opacity="1.000000" stroke="none" 
	d="
M57.902092,180.205322 
	C59.299568,181.970505 60.694317,183.318985 62.496895,185.061783 
	C60.889545,185.655350 59.512028,186.164032 57.687115,186.837921 
	C59.486511,190.749298 53.885117,197.562057 63.424351,198.290451 
	C63.360714,198.804260 63.297077,199.318069 63.233440,199.831879 
	C61.197399,200.272430 59.087681,201.241302 57.150734,200.971207 
	C55.818851,200.785477 54.116196,199.076706 53.673515,197.697464 
	C53.043308,195.733917 53.614811,193.419510 53.308567,191.307816 
	C52.970715,188.978195 52.220970,186.708282 51.576385,184.113449 
	C52.015903,183.037857 52.627071,181.348770 53.392433,179.732697 
	C53.965530,178.522583 54.737255,177.406540 55.420536,176.248611 
	C56.246807,177.428619 57.073082,178.608627 57.902092,180.205322 
z"/>
<path fill="#F34E1F" opacity="1.000000" stroke="none" 
	d="
M213.661423,186.129242 
	C213.983734,186.346573 213.891205,186.518753 213.634445,186.750412 
	C212.228638,186.820816 210.902588,187.009964 209.666626,186.757660 
	C206.174591,186.044830 205.169113,188.062134 204.976990,190.889572 
	C204.808151,193.374329 205.076004,195.906265 204.711456,198.351852 
	C204.560410,199.365158 203.264999,200.207886 202.490005,201.128189 
	C201.709229,200.243042 200.305771,199.392670 200.254059,198.466812 
	C200.013260,194.155884 199.985657,189.813477 200.269897,185.507950 
	C200.333069,184.551132 201.824585,183.255280 202.911972,182.906982 
	C204.332901,182.451843 206.025436,182.938126 207.566544,182.744308 
	C210.410019,182.386734 212.457932,183.152054 213.661423,186.129242 
z"/>
<path fill="#F2420F" opacity="1.000000" stroke="none" 
	d="
M155.169434,191.027100 
	C155.149887,194.002472 155.301590,196.518265 155.008881,198.981247 
	C154.918350,199.742844 153.706100,200.627106 152.829727,200.915741 
	C152.469360,201.034439 151.129395,199.746368 151.105957,199.068085 
	C150.945114,194.414703 150.922562,189.749756 151.102737,185.098099 
	C151.132645,184.325958 152.371597,183.600647 153.051819,182.853699 
	C153.748978,183.587967 154.901245,184.241226 155.049316,185.073212 
	C155.365280,186.848770 155.160736,188.716949 155.169434,191.027100 
z"/>
<path fill="#F2420F" opacity="1.000000" stroke="none" 
	d="
M124.830460,195.818604 
	C124.841866,192.007462 124.691048,188.660690 124.971825,185.350525 
	C125.047409,184.459579 126.434700,183.679886 127.219864,182.849121 
	C127.856346,183.660370 128.992813,184.442108 129.042740,185.287964 
	C129.258408,188.942337 129.376602,192.634094 129.069473,196.273361 
	C128.931229,197.911560 127.713074,199.458633 126.984909,201.047043 
	C126.266708,199.463593 125.548508,197.880157 124.830460,195.818604 
z"/>
<path fill="#FFFEFA" opacity="1.000000" stroke="none" 
	d="
M199.401184,69.566208 
	C217.717880,84.653473 224.469681,108.271317 216.904282,130.083969 
	C209.495804,151.444168 189.306213,166.123840 166.457245,166.763626 
	C137.712189,167.568466 112.443977,143.912628 111.064407,114.905357 
	C109.668030,85.544472 132.027191,60.031963 160.927414,57.863350 
	C175.171967,56.794472 187.867661,60.609455 199.401184,69.566208 
M188.815323,69.524406 
	C188.621048,69.267021 188.377197,69.071465 187.942902,68.295853 
	C186.634720,67.687462 185.326538,67.079071 184.018372,66.470680 
	C183.861206,66.950569 183.704056,67.430458 183.546906,67.910347 
	C185.008072,68.304916 186.469254,68.699493 188.177994,69.495789 
	C188.385376,69.741493 188.637283,69.926636 189.250580,70.467484 
	C189.651199,70.501465 190.058167,70.584396 190.447800,70.533791 
	C190.541092,70.521675 190.576660,70.065056 190.638779,69.812866 
	C190.109268,69.853256 189.579758,69.893646 188.815323,69.524406 
M146.579300,68.018578 
	C146.838272,67.741447 147.097244,67.464325 147.356216,67.187195 
	C147.151978,67.001526 146.947723,66.815857 146.743484,66.630188 
	C146.462326,67.062622 146.181183,67.495049 145.637070,68.087265 
	C145.780731,68.089081 145.924393,68.090897 146.579300,68.018578 
M120.772720,131.536743 
	C120.710648,131.856033 120.648582,132.175339 120.586510,132.494614 
	C120.882996,132.524582 121.179489,132.554535 121.475975,132.584503 
	C121.334961,132.044174 121.193939,131.503845 121.024643,130.292786 
	C120.703239,129.509186 120.381836,128.725586 120.024307,127.279655 
	C119.690308,126.514816 119.356316,125.749985 119.019318,124.317116 
	C119.019318,123.510757 119.019318,122.704407 119.019318,121.898048 
	C118.513443,122.036842 118.007561,122.175636 117.501686,122.314423 
	C117.992386,123.217941 118.483086,124.121460 118.943970,125.610535 
	C119.276756,126.426216 119.609543,127.241890 119.925583,128.634216 
	C120.256630,129.442200 120.587677,130.250183 120.772720,131.536743 
M128.097824,143.333435 
	C128.196487,143.373367 128.295135,143.413284 128.393799,143.453217 
	C128.289566,143.281601 128.185349,143.109985 127.977592,142.370499 
	C127.562134,142.080215 127.146675,141.789932 126.731209,141.499649 
	C126.637566,141.757431 126.413567,142.203568 126.470894,142.243240 
	C126.932579,142.562775 127.447227,142.805771 128.097824,143.333435 
M179.420883,158.068939 
	C179.114365,158.468460 178.807846,158.867966 178.501343,159.267487 
	C178.761780,159.360031 179.223770,159.573044 179.251572,159.526520 
	C179.541306,159.041824 179.761292,158.515442 180.275925,157.894012 
	C180.183746,157.929138 180.091568,157.964264 179.420883,158.068939 
M212.938080,99.407463 
	C212.630096,99.084229 212.322098,98.761002 212.014114,98.437767 
	C211.828705,98.647545 211.643311,98.857323 211.457916,99.067108 
	C211.964035,99.385612 212.470169,99.704117 212.916061,100.687187 
	C212.784943,101.606850 212.653824,102.526520 212.522720,103.446182 
	C212.974274,103.418442 213.425827,103.390694 213.877380,103.362953 
	C213.592453,102.234062 213.307526,101.105171 212.938080,99.407463 
M118.305969,99.088982 
	C118.029022,100.093979 117.752075,101.098984 117.475136,102.103981 
	C117.894798,102.158005 118.314453,102.212029 118.734116,102.266052 
	C118.833359,101.184761 118.932610,100.103462 119.440804,98.762970 
	C119.422302,98.400322 119.403801,98.037674 119.385307,97.675026 
	C119.245338,98.105148 119.105370,98.535278 118.305969,99.088982 
M180.235565,66.446922 
	C180.599960,66.428253 180.964340,66.409576 181.328735,66.390907 
	C180.901535,66.244827 180.474335,66.098740 179.874802,65.226036 
	C178.264816,64.797935 176.654831,64.369843 174.903137,63.673702 
	C174.806427,63.631592 174.709702,63.589481 174.612991,63.547371 
	C174.724182,63.712109 174.835358,63.876846 175.120316,64.770599 
	C176.736984,65.194641 178.353668,65.618683 180.235565,66.446922 
M203.099289,81.326111 
	C203.196396,81.367363 203.293503,81.408623 203.390610,81.449890 
	C203.284180,81.281662 203.177750,81.113434 202.973068,80.260567 
	C201.077621,78.145004 199.182159,76.029449 197.286697,73.913887 
	C196.783325,74.438782 196.279953,74.963676 195.776581,75.488571 
	C198.168488,77.346611 200.560379,79.204651 203.099289,81.326111 
M211.253998,128.099060 
	C208.563934,132.817001 205.873886,137.534943 203.183823,142.252884 
	C203.809418,142.569168 204.434998,142.885468 205.060593,143.201752 
	C207.383804,138.141022 209.707016,133.080292 212.506226,127.638382 
	C212.465057,126.878258 212.423889,126.118126 212.382736,125.358002 
	C212.064362,125.400986 211.745987,125.443962 211.427612,125.486946 
	C211.602982,126.313576 211.778336,127.140205 211.253998,128.099060 
M178.863510,83.632507 
	C176.010529,81.364830 173.393280,78.642159 170.217789,76.997009 
	C168.255676,75.980484 164.657913,75.545975 163.145370,76.669258 
	C155.350433,82.458115 147.883682,88.710556 140.558533,95.095093 
	C138.730042,96.688782 136.782242,99.335716 136.710587,101.557320 
	C136.313995,113.851501 136.343002,126.167030 136.628662,138.465897 
	C136.664169,139.993942 139.040268,142.715576 140.409012,142.765457 
	C150.521683,143.133926 160.653946,142.964859 170.860733,142.964859 
	C171.988358,139.092422 171.943497,134.129211 174.341766,132.194565 
	C178.056915,129.197571 179.755005,124.718346 183.547882,122.090477 
	C184.170578,121.659050 185.387680,121.326843 185.919434,121.641884 
	C190.527603,124.371979 193.565002,120.151215 197.469406,119.600723 
	C197.469406,113.568916 197.688431,107.906700 197.346008,102.278641 
	C197.232147,100.406944 196.103729,98.153656 194.704849,96.883522 
	C189.786942,92.418159 184.549667,88.304497 178.863510,83.632507 
M120.794632,90.432014 
	C120.485466,91.952263 120.176292,93.472519 119.867126,94.992767 
	C120.194862,95.095596 120.522598,95.198425 120.850334,95.301254 
	C122.545952,91.804207 124.241562,88.307167 125.937172,84.810127 
	C125.591324,84.626328 125.245483,84.442528 124.899635,84.258728 
	C123.631088,86.089607 122.362541,87.920486 120.794632,90.432014 
M150.739334,159.806473 
	C152.238281,160.075317 153.737228,160.344162 155.236176,160.613007 
	C155.359177,160.127411 155.482162,159.641800 155.605164,159.156204 
	C152.321060,158.222610 149.036972,157.289017 145.752869,156.355423 
	C145.613144,156.764969 145.473419,157.174515 145.333694,157.584045 
	C146.907532,158.231918 148.481369,158.879776 150.739334,159.806473 
M207.176193,89.387665 
	C208.182007,90.829712 209.187820,92.271759 210.193619,93.713806 
	C210.529770,93.509911 210.865921,93.306023 211.202072,93.102135 
	C210.330963,91.263359 209.459854,89.424583 208.588760,87.585808 
	C208.036850,87.990387 207.484924,88.394958 207.176193,89.387665 
M129.570755,78.315788 
	C128.741394,79.207832 127.912033,80.099884 127.082672,80.991928 
	C127.593689,81.324875 128.104706,81.657814 128.615723,81.990761 
	C129.147507,80.777985 129.679276,79.565216 129.570755,78.315788 
M192.145950,152.339828 
	C191.065948,153.024002 189.985931,153.708176 188.905930,154.392349 
	C189.137695,154.681091 189.369461,154.969849 189.601212,155.258591 
	C190.599106,154.426178 191.596985,153.593765 192.145950,152.339828 
M134.636581,74.803589 
	C133.900650,75.014290 133.164734,75.224991 132.428802,75.435692 
	C132.570175,75.833382 132.711548,76.231064 132.852921,76.628746 
	C133.458969,76.225624 134.065002,75.822495 134.636581,74.803589 
M138.128937,71.791084 
	C139.229324,71.373665 140.329697,70.956253 141.430084,70.538834 
	C141.176575,70.104362 140.923050,69.669884 140.669540,69.235413 
	C139.817459,69.901024 138.965378,70.566628 138.128937,71.791084 
M172.562408,160.465790 
	C173.712189,160.664200 174.861984,160.862610 176.011765,161.061020 
	C176.052811,160.717285 176.093857,160.373550 176.134903,160.029816 
	C174.899261,159.971664 173.663620,159.913513 172.562408,160.465790 
M199.269409,147.092941 
	C199.767883,147.038330 200.266357,146.983704 200.764832,146.929092 
	C200.649979,146.483398 200.535110,146.037704 200.420242,145.592010 
	C199.994186,145.893585 199.568115,146.195160 199.269409,147.092941 
M116.096703,105.359741 
	C116.458496,105.605911 116.820290,105.852081 117.182083,106.098251 
	C117.334862,105.699829 117.487640,105.301407 117.640419,104.902985 
	C117.176735,104.873787 116.713051,104.844582 116.096703,105.359741 
M121.596298,134.657867 
	C122.010834,135.323654 122.425369,135.989456 122.839905,136.655243 
	C123.056816,136.499405 123.273735,136.343567 123.490646,136.187729 
	C122.979233,135.556931 122.467819,134.926132 121.596298,134.657867 
M139.212189,153.627808 
	C139.260895,153.269775 139.309616,152.911743 139.358322,152.553711 
	C139.102295,152.552078 138.846268,152.550446 138.590240,152.548813 
	C138.629013,152.907578 138.667801,153.266357 139.212189,153.627808 
M124.661819,138.077698 
	C124.414062,138.301697 124.166306,138.525696 123.918549,138.749695 
	C124.436996,138.921799 124.955444,139.093887 125.473892,139.265976 
	C125.369995,138.909164 125.266090,138.552338 124.661819,138.077698 
M213.298080,120.436745 
	C213.009476,120.712006 212.720886,120.987267 212.432297,121.262527 
	C212.546844,121.381371 212.754181,121.610222 212.762527,121.603165 
	C213.066376,121.346878 213.351715,121.068634 213.298080,120.436745 
M117.205711,119.609215 
	C117.210114,119.209755 117.214516,118.810287 117.218918,118.410828 
	C117.053139,118.409218 116.743263,118.396523 116.742409,118.407593 
	C116.711838,118.805199 116.710114,119.205025 117.205711,119.609215 
M117.121613,111.782990 
	C117.233215,111.895607 117.330063,112.067345 117.461578,112.100166 
	C117.550064,112.122246 117.783516,111.952248 117.787697,111.860657 
	C117.816895,111.222298 117.803123,110.581963 117.803123,109.942268 
	C117.630043,109.939430 117.456970,109.936592 117.283890,109.933762 
	C117.199455,110.374962 117.115021,110.816170 117.121613,111.782990 
M206.670242,85.028633 
	C206.125412,84.734177 205.580582,84.439720 205.035751,84.145264 
	C204.943375,84.357567 204.851013,84.569862 204.758636,84.782158 
	C205.286057,84.988777 205.813477,85.195396 206.670242,85.028633 
M153.008636,64.697990 
	C152.766220,64.774948 152.523804,64.851898 152.281387,64.928848 
	C152.554214,65.197884 152.827057,65.466919 153.099884,65.735954 
	C153.175247,65.493919 153.250626,65.251892 153.008636,64.697990 
M159.671127,64.378540 
	C159.593704,64.118584 159.516296,63.858624 159.438889,63.598656 
	C159.150742,63.880177 158.862595,64.161697 158.574463,64.443222 
	C158.832809,64.526131 159.091171,64.609047 159.671127,64.378540 
M143.469131,69.253418 
	C143.597107,68.861496 143.746201,68.474266 143.835114,68.073662 
	C143.852737,67.994278 143.639267,67.863609 143.532379,67.756592 
	C143.404541,68.148323 143.276718,68.540054 143.469131,69.253418 
M183.919327,157.475723 
	C183.774887,157.233398 183.630447,156.991058 183.486008,156.748718 
	C183.352188,156.998489 183.057510,157.312988 183.125366,157.481598 
	C183.209900,157.691681 183.593475,157.781433 183.919327,157.475723 
M195.071976,150.520355 
	C195.219238,150.766037 195.366501,151.011719 195.513763,151.257401 
	C195.650574,151.003967 195.952316,150.682327 195.882812,150.514221 
	C195.794205,150.299927 195.405411,150.209763 195.071976,150.520355 
M135.843826,150.044052 
	C135.587082,150.196365 135.201859,150.297897 135.115143,150.517380 
	C135.048492,150.686050 135.357712,151.003265 135.499771,151.254410 
	C135.641968,151.003052 135.784164,150.751709 135.843826,150.044052 
M192.469589,72.254227 
	C192.599258,71.859573 192.750168,71.469666 192.840424,71.066200 
	C192.858093,70.987190 192.640869,70.855652 192.531998,70.748344 
	C192.402313,71.143044 192.272614,71.537735 192.469589,72.254227 
M185.753860,156.829620 
	C185.587692,156.884689 185.421539,156.939743 185.255371,156.994797 
	C185.422470,157.048492 185.589554,157.102173 185.753860,156.829620 
M141.527161,154.623047 
	C141.471909,154.838608 141.416672,155.054153 141.361420,155.269714 
	C141.497864,155.131058 141.634323,154.992401 141.527161,154.623047 
M171.615616,64.475098 
	C171.834351,64.530914 172.053085,64.586739 172.271820,64.642555 
	C172.131058,64.504700 171.990311,64.366852 171.615616,64.475098 
M211.192322,95.248779 
	C211.028229,95.369308 210.864120,95.489838 210.700012,95.610367 
	C210.928741,95.585083 211.157471,95.559799 211.192322,95.248779 
M143.402679,156.480911 
	C143.402679,156.480911 143.523804,156.405838 143.402679,156.480911 
M148.517471,65.409798 
	C148.517471,65.409798 148.586212,65.524269 148.517471,65.409798 
M187.518204,156.401016 
	C187.518204,156.401016 187.593292,156.522842 187.518204,156.401016 
z"/>
<path fill="#FEFAF6" opacity="1.000000" stroke="none" 
	d="
M180.795685,193.729416 
	C180.669571,192.643799 180.362869,191.789932 180.662888,191.347168 
	C181.920486,189.491180 183.359848,187.758331 184.732620,185.980377 
	C186.204651,187.291321 188.801956,188.529129 188.892990,189.929825 
	C189.040756,192.203690 188.209152,195.400909 186.583374,196.720154 
	C184.381516,198.506866 181.859253,197.155090 180.795685,193.729416 
z"/>
<path fill="#FEF2EC" opacity="1.000000" stroke="none" 
	d="
M116.726738,195.616974 
	C114.810860,196.417191 112.279976,197.818741 111.521912,197.164886 
	C110.010338,195.861084 108.744881,193.427246 108.748772,191.462875 
	C108.752243,189.707672 110.190247,187.204529 111.724365,186.367157 
	C114.498474,184.852905 116.509789,186.954254 117.140739,189.570557 
	C117.570992,191.354584 117.023712,193.374374 116.726738,195.616974 
z"/>
<path fill="#FEF6F1" opacity="1.000000" stroke="none" 
	d="
M225.890900,190.368530 
	C225.958801,191.095993 226.110229,191.522110 225.959869,191.740036 
	C224.517456,193.830688 223.024094,195.886185 221.545334,197.951767 
	C220.008194,196.531693 217.653442,195.363754 217.120071,193.634155 
	C216.259064,190.842102 216.407791,187.419128 220.008560,186.170074 
	C223.245987,185.047073 224.844452,187.230637 225.890900,190.368530 
z"/>
<path fill="#FDE0D6" opacity="1.000000" stroke="none" 
	d="
M88.365646,186.643082 
	C92.307610,184.407410 94.071053,186.182648 95.281158,190.140305 
	C92.515671,190.140305 90.032188,190.140305 86.855141,190.140305 
	C87.281837,189.041260 87.695763,187.975098 88.365646,186.643082 
z"/>
<path fill="#FEF6F1" opacity="1.000000" stroke="none" 
	d="
M243.987701,188.149872 
	C244.437134,189.450836 245.183502,190.596069 244.886566,191.303146 
	C243.935898,193.566788 242.863037,195.917953 241.222260,197.654007 
	C240.819092,198.080597 236.802765,196.486206 236.653809,195.490753 
	C236.250504,192.795670 236.246384,189.459213 237.553192,187.243805 
	C239.034393,184.732742 241.864151,185.541046 243.987701,188.149872 
z"/>
<path fill="#F2400D" opacity="1.000000" stroke="none" 
	d="
M179.148560,83.844940 
	C184.549667,88.304497 189.786942,92.418159 194.704849,96.883522 
	C196.103729,98.153656 197.232147,100.406944 197.346008,102.278641 
	C197.688431,107.906700 197.469406,113.568916 197.469406,119.600723 
	C193.565002,120.151215 190.527603,124.371979 185.919434,121.641884 
	C185.387680,121.326843 184.170578,121.659050 183.547882,122.090477 
	C179.755005,124.718346 178.056915,129.197571 174.341766,132.194565 
	C171.943497,134.129211 171.988358,139.092422 170.860733,142.964859 
	C160.653946,142.964859 150.521683,143.133926 140.409012,142.765457 
	C139.040268,142.715576 136.664169,139.993942 136.628662,138.465897 
	C136.343002,126.167030 136.313995,113.851501 136.710587,101.557320 
	C136.782242,99.335716 138.730042,96.688782 140.558533,95.095093 
	C147.883682,88.710556 155.350433,82.458115 163.145370,76.669258 
	C164.657913,75.545975 168.255676,75.980484 170.217789,76.997009 
	C173.393280,78.642159 176.010529,81.364830 179.148560,83.844940 
z"/>
<path fill="#FAF8F4" opacity="1.000000" stroke="none" 
	d="
M212.030243,128.019547 
	C209.707016,133.080292 207.383804,138.141022 205.060593,143.201752 
	C204.434998,142.885468 203.809418,142.569168 203.183823,142.252884 
	C205.873886,137.534943 208.563934,132.817001 211.622864,128.046341 
	C211.991745,127.993629 212.030228,128.019547 212.030243,128.019547 
z"/>
<path fill="#FAF8F4" opacity="1.000000" stroke="none" 
	d="
M120.944313,90.091690 
	C122.362541,87.920486 123.631088,86.089607 124.899635,84.258728 
	C125.245483,84.442528 125.591324,84.626328 125.937172,84.810127 
	C124.241562,88.307167 122.545952,91.804207 120.850334,95.301254 
	C120.522598,95.198425 120.194862,95.095596 119.867126,94.992767 
	C120.176292,93.472519 120.485466,91.952263 120.944313,90.091690 
z"/>
<path fill="#FAF8F4" opacity="1.000000" stroke="none" 
	d="
M150.397278,159.667053 
	C148.481369,158.879776 146.907532,158.231918 145.333694,157.584045 
	C145.473419,157.174515 145.613144,156.764969 145.752869,156.355423 
	C149.036972,157.289017 152.321060,158.222610 155.605164,159.156204 
	C155.482162,159.641800 155.359177,160.127411 155.236176,160.613007 
	C153.737228,160.344162 152.238281,160.075317 150.397278,159.667053 
z"/>
<path fill="#FAF8F4" opacity="1.000000" stroke="none" 
	d="
M202.952271,81.062691 
	C200.560379,79.204651 198.168488,77.346611 195.776581,75.488571 
	C196.279953,74.963676 196.783325,74.438782 197.286697,73.913887 
	C199.182159,76.029449 201.077621,78.145004 202.990448,80.630234 
	C203.007812,80.999908 202.952271,81.062691 202.952271,81.062691 
z"/>
<path fill="#FAF8F4" opacity="1.000000" stroke="none" 
	d="
M207.054596,89.093597 
	C207.484924,88.394958 208.036850,87.990387 208.588760,87.585800 
	C209.459854,89.424583 210.330963,91.263359 211.202072,93.102135 
	C210.865921,93.306023 210.529770,93.509911 210.193619,93.713806 
	C209.187820,92.271759 208.182007,90.829712 207.054596,89.093597 
z"/>
<path fill="#FAF8F4" opacity="1.000000" stroke="none" 
	d="
M129.890900,78.334114 
	C129.679276,79.565216 129.147507,80.777985 128.615723,81.990761 
	C128.104706,81.657814 127.593689,81.324875 127.082672,80.991928 
	C127.912033,80.099884 128.741394,79.207832 129.890900,78.334114 
z"/>
<path fill="#FAF8F4" opacity="1.000000" stroke="none" 
	d="
M175.044846,63.941738 
	C176.654831,64.369843 178.264816,64.797935 179.940659,65.610924 
	C180.006516,65.995811 179.970337,66.042725 179.970337,66.042725 
	C178.353668,65.618683 176.736984,65.194641 175.059723,64.382812 
	C174.999115,63.995022 175.044846,63.941738 175.044846,63.941738 
z"/>
<path fill="#FAF8F4" opacity="1.000000" stroke="none" 
	d="
M187.930420,69.094063 
	C186.469254,68.699493 185.008072,68.304916 183.546906,67.910347 
	C183.704056,67.430458 183.861206,66.950569 184.018372,66.470680 
	C185.326538,67.079071 186.634720,67.687462 187.971954,68.653214 
	C188.001022,69.010582 187.930420,69.094063 187.930420,69.094063 
z"/>
<path fill="#FAF8F4" opacity="1.000000" stroke="none" 
	d="
M192.370422,152.550598 
	C191.596985,153.593765 190.599106,154.426178 189.601212,155.258591 
	C189.369461,154.969849 189.137695,154.681091 188.905930,154.392349 
	C189.985931,153.708176 191.065948,153.024002 192.370422,152.550598 
z"/>
<path fill="#FAF8F4" opacity="1.000000" stroke="none" 
	d="
M134.653809,75.111481 
	C134.065002,75.822495 133.458969,76.225624 132.852921,76.628746 
	C132.711548,76.231064 132.570175,75.833382 132.428802,75.435692 
	C133.164734,75.224991 133.900650,75.014290 134.653809,75.111481 
z"/>
<path fill="#FAF8F4" opacity="1.000000" stroke="none" 
	d="
M138.121124,71.511658 
	C138.965378,70.566628 139.817459,69.901024 140.669540,69.235413 
	C140.923050,69.669884 141.176575,70.104362 141.430084,70.538834 
	C140.329697,70.956253 139.229324,71.373665 138.121124,71.511658 
z"/>
<path fill="#FAF8F4" opacity="1.000000" stroke="none" 
	d="
M119.031853,99.022171 
	C118.932610,100.103462 118.833359,101.184761 118.734116,102.266052 
	C118.314453,102.212029 117.894798,102.158005 117.475136,102.103981 
	C117.752075,101.098984 118.029022,100.093979 118.651443,99.042427 
	C118.996918,98.995872 119.031853,99.022171 119.031853,99.022171 
z"/>
<path fill="#FAF8F4" opacity="1.000000" stroke="none" 
	d="
M172.495193,160.160583 
	C173.663620,159.913513 174.899261,159.971664 176.134903,160.029816 
	C176.093857,160.373550 176.052811,160.717285 176.011765,161.061020 
	C174.861984,160.862610 173.712189,160.664200 172.495193,160.160583 
z"/>
<path fill="#FAF8F4" opacity="1.000000" stroke="none" 
	d="
M213.022614,99.976273 
	C213.307526,101.105171 213.592453,102.234062 213.877380,103.362953 
	C213.425827,103.390694 212.974274,103.418442 212.522720,103.446182 
	C212.653824,102.526520 212.784943,101.606850 212.958008,100.343567 
	C212.999939,99.999939 213.022614,99.976273 213.022614,99.976273 
z"/>
<path fill="#FAF8F4" opacity="1.000000" stroke="none" 
	d="
M118.973793,125.024979 
	C118.483086,124.121460 117.992386,123.217941 117.501686,122.314423 
	C118.007561,122.175636 118.513443,122.036842 119.019318,121.898048 
	C119.019318,122.704407 119.019318,123.510757 119.008011,124.660217 
	C118.996704,125.003311 118.973793,125.024979 118.973793,125.024979 
z"/>
<path fill="#FAF8F4" opacity="1.000000" stroke="none" 
	d="
M199.205734,146.794830 
	C199.568115,146.195160 199.994186,145.893585 200.420242,145.592010 
	C200.535110,146.037704 200.649979,146.483398 200.764832,146.929092 
	C200.266357,146.983704 199.767883,147.038330 199.205734,146.794830 
z"/>
<path fill="#FAF8F4" opacity="1.000000" stroke="none" 
	d="
M116.173035,105.087563 
	C116.713051,104.844582 117.176735,104.873787 117.640419,104.902985 
	C117.487640,105.301407 117.334862,105.699829 117.182083,106.098251 
	C116.820290,105.852081 116.458496,105.605911 116.173035,105.087563 
z"/>
<path fill="#FAF8F4" opacity="1.000000" stroke="none" 
	d="
M211.972717,127.980225 
	C211.778336,127.140205 211.602982,126.313576 211.427612,125.486946 
	C211.745987,125.443962 212.064362,125.400986 212.382736,125.358002 
	C212.423889,126.118126 212.465057,126.878258 212.268219,127.828964 
	C212.030228,128.019547 211.991745,127.993629 211.972717,127.980225 
z"/>
<path fill="#FAF8F4" opacity="1.000000" stroke="none" 
	d="
M121.776352,134.476608 
	C122.467819,134.926132 122.979233,135.556931 123.490646,136.187729 
	C123.273735,136.343567 123.056816,136.499405 122.839905,136.655243 
	C122.425369,135.989456 122.010834,135.323654 121.776352,134.476608 
z"/>
<path fill="#FAF8F4" opacity="1.000000" stroke="none" 
	d="
M138.959381,153.626465 
	C138.667801,153.266357 138.629013,152.907578 138.590240,152.548813 
	C138.846268,152.550446 139.102295,152.552078 139.358322,152.553711 
	C139.309616,152.911743 139.260895,153.269775 138.959381,153.626465 
z"/>
<path fill="#FAF8F4" opacity="1.000000" stroke="none" 
	d="
M180.000610,158.000610 
	C179.761292,158.515442 179.541306,159.041824 179.251572,159.526520 
	C179.223770,159.573044 178.761780,159.360031 178.501343,159.267487 
	C178.807846,158.867966 179.114365,158.468460 179.710449,158.034470 
	C180.000000,158.000000 180.000610,158.000610 180.000610,158.000610 
z"/>
<path fill="#FAF8F4" opacity="1.000000" stroke="none" 
	d="
M127.945702,143.072159 
	C127.447227,142.805771 126.932579,142.562775 126.470894,142.243240 
	C126.413567,142.203568 126.637566,141.757431 126.731216,141.499649 
	C127.146675,141.789932 127.562134,142.080215 127.993210,142.685547 
	C128.008820,143.000595 127.945702,143.072159 127.945702,143.072159 
z"/>
<path fill="#FAF8F4" opacity="1.000000" stroke="none" 
	d="
M124.912003,138.136612 
	C125.266090,138.552338 125.369995,138.909164 125.473892,139.265976 
	C124.955444,139.093887 124.436996,138.921799 123.918549,138.749695 
	C124.166306,138.525696 124.414062,138.301697 124.912003,138.136612 
z"/>
<path fill="#FAF8F4" opacity="1.000000" stroke="none" 
	d="
M120.060440,127.941994 
	C120.381836,128.725586 120.703239,129.509186 121.005219,130.651794 
	C120.985802,131.010803 120.918716,131.058167 120.918716,131.058167 
	C120.587677,130.250183 120.256630,129.442200 119.963333,128.316833 
	C120.001076,127.999466 120.060440,127.941994 120.060440,127.941994 
z"/>
<path fill="#FAF8F4" opacity="1.000000" stroke="none" 
	d="
M119.971703,128.028519 
	C119.609543,127.241890 119.276756,126.426216 118.958878,125.317757 
	C118.973793,125.024979 118.996704,125.003311 119.009506,124.994232 
	C119.356316,125.749985 119.690308,126.514816 120.042374,127.610825 
	C120.060440,127.941994 120.001076,127.999466 119.971703,128.028519 
z"/>
<path fill="#FAF8F4" opacity="1.000000" stroke="none" 
	d="
M213.468842,120.615082 
	C213.351715,121.068634 213.066376,121.346878 212.762527,121.603165 
	C212.754181,121.610222 212.546844,121.381371 212.432297,121.262527 
	C212.720886,120.987267 213.009476,120.712006 213.468842,120.615082 
z"/>
<path fill="#FAF8F4" opacity="1.000000" stroke="none" 
	d="
M116.955048,119.606873 
	C116.710114,119.205025 116.711838,118.805199 116.742409,118.407593 
	C116.743263,118.396523 117.053139,118.409218 117.218918,118.410828 
	C117.214516,118.810287 117.210114,119.209755 116.955048,119.606873 
z"/>
<path fill="#FEFDF9" opacity="1.000000" stroke="none" 
	d="
M117.076096,111.520180 
	C117.115021,110.816170 117.199455,110.374962 117.283890,109.933762 
	C117.456970,109.936592 117.630043,109.939430 117.803123,109.942268 
	C117.803123,110.581963 117.816895,111.222298 117.787697,111.860657 
	C117.783516,111.952248 117.550064,112.122246 117.461578,112.100166 
	C117.330063,112.067345 117.233215,111.895607 117.076096,111.520180 
z"/>
<path fill="#FAF8F4" opacity="1.000000" stroke="none" 
	d="
M212.988113,100.011276 
	C212.470169,99.704117 211.964035,99.385612 211.457916,99.067108 
	C211.643311,98.857323 211.828705,98.647545 212.014114,98.437775 
	C212.322098,98.761002 212.630096,99.084229 212.980347,99.691864 
	C213.022614,99.976273 212.999939,99.999939 212.988113,100.011276 
z"/>
<path fill="#FAF8F4" opacity="1.000000" stroke="none" 
	d="
M206.505569,85.215317 
	C205.813477,85.195396 205.286057,84.988777 204.758636,84.782158 
	C204.851013,84.569862 204.943375,84.357567 205.035751,84.145264 
	C205.580582,84.439720 206.125412,84.734177 206.505569,85.215317 
z"/>
<path fill="#FAF8F4" opacity="1.000000" stroke="none" 
	d="
M153.167313,64.853928 
	C153.250626,65.251892 153.175247,65.493919 153.099884,65.735954 
	C152.827057,65.466919 152.554214,65.197884 152.281387,64.928848 
	C152.523804,64.851898 152.766220,64.774948 153.167313,64.853928 
z"/>
<path fill="#FAF8F4" opacity="1.000000" stroke="none" 
	d="
M145.900024,67.927483 
	C146.181183,67.495049 146.462326,67.062622 146.743484,66.630188 
	C146.947723,66.815857 147.151978,67.001526 147.356216,67.187195 
	C147.097244,67.464325 146.838272,67.741447 146.284698,68.011261 
	C145.990097,68.003937 145.900024,67.927483 145.900024,67.927483 
z"/>
<path fill="#FAF8F4" opacity="1.000000" stroke="none" 
	d="
M159.510315,64.535248 
	C159.091171,64.609047 158.832809,64.526131 158.574463,64.443222 
	C158.862595,64.161697 159.150742,63.880177 159.438889,63.598660 
	C159.516296,63.858624 159.593704,64.118584 159.510315,64.535248 
z"/>
<path fill="#FAF8F4" opacity="1.000000" stroke="none" 
	d="
M143.309006,69.092606 
	C143.276718,68.540054 143.404541,68.148323 143.532379,67.756592 
	C143.639267,67.863609 143.852737,67.994278 143.835114,68.073662 
	C143.746201,68.474266 143.597107,68.861496 143.309006,69.092606 
z"/>
<path fill="#FAF8F4" opacity="1.000000" stroke="none" 
	d="
M183.883636,157.699432 
	C183.593475,157.781433 183.209900,157.691681 183.125366,157.481598 
	C183.057510,157.312988 183.352188,156.998489 183.486008,156.748718 
	C183.630447,156.991058 183.774887,157.233398 183.883636,157.699432 
z"/>
<path fill="#FAF8F4" opacity="1.000000" stroke="none" 
	d="
M195.109009,150.293213 
	C195.405411,150.209763 195.794205,150.299927 195.882812,150.514221 
	C195.952316,150.682327 195.650574,151.003967 195.513763,151.257401 
	C195.366501,151.011719 195.219238,150.766037 195.109009,150.293213 
z"/>
<path fill="#FAF8F4" opacity="1.000000" stroke="none" 
	d="
M135.885101,150.272202 
	C135.784164,150.751709 135.641968,151.003052 135.499771,151.254410 
	C135.357712,151.003265 135.048492,150.686050 135.115143,150.517380 
	C135.201859,150.297897 135.587082,150.196365 135.885101,150.272202 
z"/>
<path fill="#FAF8F4" opacity="1.000000" stroke="none" 
	d="
M189.050247,69.934036 
	C189.579758,69.893646 190.109268,69.853256 190.638779,69.812866 
	C190.576660,70.065056 190.541092,70.521675 190.447800,70.533791 
	C190.058167,70.584396 189.651199,70.501465 189.123276,70.232040 
	C188.995972,69.996605 189.050247,69.934036 189.050247,69.934036 
z"/>
<path fill="#FAF8F4" opacity="1.000000" stroke="none" 
	d="
M121.019363,130.987152 
	C121.193939,131.503845 121.334961,132.044174 121.475975,132.584503 
	C121.179489,132.554535 120.882996,132.524582 120.586510,132.494629 
	C120.648582,132.175339 120.710648,131.856033 120.845718,131.297455 
	C120.918716,131.058167 120.985802,131.010803 121.019363,130.987152 
z"/>
<path fill="#FAF8F4" opacity="1.000000" stroke="none" 
	d="
M192.306244,72.093330 
	C192.272614,71.537735 192.402313,71.143044 192.531998,70.748344 
	C192.640869,70.855652 192.858093,70.987190 192.840424,71.066200 
	C192.750168,71.469666 192.599258,71.859573 192.306244,72.093330 
z"/>
<path fill="#FAF8F4" opacity="1.000000" stroke="none" 
	d="
M185.755249,156.992737 
	C185.589554,157.102173 185.422470,157.048492 185.255371,156.994797 
	C185.421539,156.939743 185.587692,156.884689 185.755249,156.992737 
z"/>
<path fill="#FAF8F4" opacity="1.000000" stroke="none" 
	d="
M141.648972,154.738403 
	C141.634323,154.992401 141.497864,155.131058 141.361420,155.269714 
	C141.416672,155.054153 141.471909,154.838608 141.648972,154.738403 
z"/>
<path fill="#FAF8F4" opacity="1.000000" stroke="none" 
	d="
M171.732574,64.352051 
	C171.990311,64.366852 172.131058,64.504700 172.271820,64.642555 
	C172.053085,64.586739 171.834351,64.530914 171.732574,64.352051 
z"/>
<path fill="#FAF8F4" opacity="1.000000" stroke="none" 
	d="
M118.981163,98.980637 
	C119.105370,98.535278 119.245338,98.105148 119.385307,97.675026 
	C119.403801,98.037674 119.422302,98.400322 119.236328,98.892570 
	C119.031853,99.022171 118.996918,98.995872 118.981163,98.980637 
z"/>
<path fill="#FAF8F4" opacity="1.000000" stroke="none" 
	d="
M211.289261,95.391647 
	C211.157471,95.559799 210.928741,95.585083 210.700012,95.610367 
	C210.864120,95.489838 211.028229,95.369308 211.289261,95.391647 
z"/>
<path fill="#FAF8F4" opacity="1.000000" stroke="none" 
	d="
M180.026825,65.974236 
	C180.474335,66.098740 180.901535,66.244827 181.328735,66.390907 
	C180.964340,66.409576 180.599960,66.428253 180.102951,66.244827 
	C179.970337,66.042725 180.006516,65.995811 180.026825,65.974236 
z"/>
<path fill="#FAF8F4" opacity="1.000000" stroke="none" 
	d="
M128.044983,142.969482 
	C128.185349,143.109985 128.289566,143.281601 128.393799,143.453217 
	C128.295135,143.413284 128.196487,143.373367 128.021759,143.202789 
	C127.945702,143.072159 128.008820,143.000595 128.044983,142.969482 
z"/>
<path fill="#FAF8F4" opacity="1.000000" stroke="none" 
	d="
M146.029083,68.048325 
	C145.924393,68.090897 145.780731,68.089081 145.768555,68.007370 
	C145.900024,67.927483 145.990097,68.003937 146.029083,68.048325 
z"/>
<path fill="#FAF8F4" opacity="1.000000" stroke="none" 
	d="
M174.972839,64.018303 
	C174.835358,63.876846 174.724182,63.712109 174.612991,63.547371 
	C174.709702,63.589481 174.806427,63.631592 174.973999,63.807720 
	C175.044846,63.941738 174.999115,63.995022 174.972839,64.018303 
z"/>
<path fill="#FAF8F4" opacity="1.000000" stroke="none" 
	d="
M188.964844,70.023911 
	C188.637283,69.926636 188.385376,69.741493 188.054199,69.294922 
	C187.930420,69.094063 188.001022,69.010582 188.042389,68.974159 
	C188.377197,69.071465 188.621048,69.267021 188.932785,69.729218 
	C189.050247,69.934036 188.995972,69.996605 188.964844,70.023911 
z"/>
<path fill="#FAF8F4" opacity="1.000000" stroke="none" 
	d="
M203.039566,80.972557 
	C203.177750,81.113434 203.284180,81.281662 203.390610,81.449890 
	C203.293503,81.408623 203.196396,81.367363 203.025787,81.194397 
	C202.952271,81.062691 203.007812,80.999908 203.039566,80.972557 
z"/>
<path fill="#FAF8F4" opacity="1.000000" stroke="none" 
	d="
M179.999695,157.999695 
	C180.091568,157.964264 180.183746,157.929138 180.138275,157.947311 
	C180.000610,158.000610 180.000000,158.000000 179.999695,157.999695 
z"/>
<path fill="#FAF8F4" opacity="1.000000" stroke="none" 
	d="
M143.463242,156.443375 
	C143.523804,156.405838 143.402679,156.480911 143.463242,156.443375 
z"/>
<path fill="#FAF8F4" opacity="1.000000" stroke="none" 
	d="
M148.551849,65.467033 
	C148.586212,65.524269 148.517471,65.409798 148.551849,65.467033 
z"/>
<path fill="#FAF8F4" opacity="1.000000" stroke="none" 
	d="
M187.555756,156.461929 
	C187.593292,156.522842 187.518204,156.401016 187.555756,156.461929 
z"/>
</svg>